<?xml version="1.0" encoding="iso-8859-1"?>
<!-- Generator: Adobe Illustrator 19.0.0, SVG Export Plug-In . SVG Version: 6.00 Build 0)  -->
<svg version="1.1" id="Layer_1" xmlns="http://www.w3.org/2000/svg" xmlns:xlink="http://www.w3.org/1999/xlink" x="0px" y="0px"
	 viewBox="0 0 512 512" style="enable-background:new 0 0 512 512;" xml:space="preserve">
<g>
	<g>
		<path d="M432.206,216.806C385.017,205.391,322.44,199.104,256,199.104c-47.953,0-93.89,3.276-133.485,9.39L103.313,82.978
			c-0.852-5.568-6.052-9.387-11.624-8.539c-5.568,0.852-9.39,6.056-8.539,11.624l19.258,125.886
			c-5.329,1.015-10.506,2.088-15.532,3.214L30.628,47.098c-1.788-5.34-7.565-8.219-12.909-6.436
			c-5.341,1.788-8.223,7.568-6.436,12.909l55.744,166.56C22.544,232.582,0,248.914,0,268.763
			c0,68.251,26.207,125.466,75.789,165.461c45.464,36.673,109.464,56.869,180.211,56.869s134.747-20.196,180.211-56.87
			C485.793,394.229,512,337.014,512,268.763C512,247.095,485.154,229.614,432.206,216.806z M116.392,303.355l-7.024-20.986
			c1.229-0.224,2.465-0.447,3.711-0.666L116.392,303.355z M105.494,232.127l4.492,29.363c-2.419,0.425-4.811,0.86-7.169,1.307
			l-9.434-28.188C97.321,233.745,101.365,232.92,105.494,232.127z M89.237,286.491l5.605,16.75
			c-12.541-2.691-23.938-5.699-33.915-8.994C69.399,291.45,78.888,288.857,89.237,286.491z M73.512,239.506l9.213,27.529
			c-19.152,4.496-35.609,9.787-48.588,15.755c-10.037-5.833-13.738-10.964-13.738-14.027
			C20.398,263.464,31.849,251.045,73.512,239.506z M256,470.694c-108.257,0-217.409-53.212-233.553-171.125
			c2.116,1.282,4.38,2.538,6.793,3.767c42.505,21.642,129.394,35.087,226.76,35.087s184.255-13.446,226.76-35.087
			c2.412-1.228,4.676-2.485,6.793-3.767C473.409,417.481,364.257,470.694,256,470.694z M133.228,278.521
			c36.505-5.162,78.792-8.053,122.772-8.053c77.924,0,150.538,9.075,195.074,23.779C406.537,308.951,333.919,318.024,256,318.024
			c-42.023,0-82.493-2.643-117.858-7.381L133.228,278.521z M477.863,282.79c-44.049-20.251-128.1-32.72-221.863-32.72
			c-45.374,0-88.473,2.92-125.866,8.229l-4.536-29.645c38.532-5.956,83.416-9.151,130.402-9.151
			c64.871,0,125.746,6.084,171.41,17.13c50.776,12.283,64.192,26.388,64.192,32.131C491.602,271.826,487.9,276.957,477.863,282.79z"
			/>
	</g>
</g>
<g>
	<g>
		<path d="M168.393,283.727h-4.272c-5.632,0-10.199,4.567-10.199,10.199s4.567,10.199,10.199,10.199h4.272
			c5.632,0,10.199-4.567,10.199-10.199S174.025,283.727,168.393,283.727z"/>
	</g>
</g>
<g>
	<g>
		<path d="M220.743,278.386h-6.41c-5.632,0-10.199,4.567-10.199,10.199s4.567,10.199,10.199,10.199h6.41
			c5.632,0,10.199-4.567,10.199-10.199S226.375,278.386,220.743,278.386z"/>
	</g>
</g>
<g>
	<g>
		<path d="M270.957,291.206h-5.341c-5.632,0-10.199,4.567-10.199,10.199c0,5.632,4.566,10.199,10.199,10.199h5.341
			c5.632,0,10.199-4.567,10.199-10.199C281.156,295.773,276.589,291.206,270.957,291.206z"/>
	</g>
</g>
<g>
	<g>
		<path d="M317.966,279.454h-5.341c-5.632,0-10.199,4.567-10.199,10.199c0,5.632,4.566,10.199,10.199,10.199h5.341
			c5.632,0,10.199-4.567,10.199-10.199C328.166,284.021,323.598,279.454,317.966,279.454z"/>
	</g>
</g>
<g>
	<g>
		<path d="M366.044,283.727h-1.069c-5.632,0-10.199,4.567-10.199,10.199s4.566,10.199,10.199,10.199h1.069
			c5.632,0,10.199-4.567,10.199-10.199S371.676,283.727,366.044,283.727z"/>
	</g>
</g>
<g>
	<g>
		<path d="M97.276,43.531l-2.137-13.967c-0.852-5.568-6.061-9.381-11.623-8.54c-5.569,0.852-9.391,6.056-8.54,11.623l2.137,13.967
			c0.772,5.046,5.117,8.658,10.069,8.658c0.513,0,1.033-0.039,1.554-0.118C94.305,54.302,98.128,49.097,97.276,43.531z"/>
	</g>
</g>
<g>
</g>
<g>
</g>
<g>
</g>
<g>
</g>
<g>
</g>
<g>
</g>
<g>
</g>
<g>
</g>
<g>
</g>
<g>
</g>
<g>
</g>
<g>
</g>
<g>
</g>
<g>
</g>
<g>
</g>
</svg>
